<svg width="25" height="25" viewBox="0 0 25 25" fill="none" xmlns="http://www.w3.org/2000/svg">
<path d="M19.7642 12.9352L21.5623 7.62319C21.6301 7.42572 21.6415 7.21332 21.5955 7.0097C21.5494 6.80609 21.4477 6.61929 21.3015 6.4702L18.0622 3.23084C17.9124 3.0812 17.7239 2.97624 17.5178 2.92774C17.3118 2.87925 17.0962 2.88915 16.8955 2.95632L11.5972 4.76816C11.4316 4.82473 11.2813 4.91867 11.158 5.04269L3.01838 13.1823C2.91379 13.2868 2.83082 13.4109 2.77422 13.5475C2.71761 13.6841 2.68848 13.8305 2.68848 13.9784C2.68848 14.1262 2.71761 14.2727 2.77422 14.4093C2.83082 14.5459 2.91379 14.67 3.01838 14.7745L9.75789 21.514C9.86242 21.6186 9.98652 21.7016 10.1231 21.7582C10.2597 21.8148 10.4061 21.8439 10.554 21.8439C10.7019 21.8439 10.8483 21.8148 10.9849 21.7582C11.1215 21.7016 11.2456 21.6186 11.3501 21.514L19.4897 13.3744C19.6137 13.251 19.7076 13.1007 19.7642 12.9352V12.9352Z" stroke="#333333" stroke-width="2" stroke-miterlimit="10" stroke-linecap="round"/>
<path d="M17.2384 8.74886C18.0117 8.74886 18.6385 8.12203 18.6385 7.34879C18.6385 6.57556 18.0117 5.94873 17.2384 5.94873C16.4652 5.94873 15.8384 6.57556 15.8384 7.34879C15.8384 8.12203 16.4652 8.74886 17.2384 8.74886Z" fill="#333333"/>
</svg>
